<svg width="520" height="250" version="1.1" viewBox="0 0 137.58 66.146" xmlns="http://www.w3.org/2000/svg">
 <g transform="translate(0 -230.85)">
  <g>
   <g stroke="#fff" stroke-width="1.8731">
    <path d="m33.437 232.71c-4.8277 0-8.7413 3.9136-8.7413 8.7412 0.0037 0.63399 0.07627 1.2657 0.21658 1.884-0.07215-5e-3 -0.14435-8e-3 -0.21658-0.0109-4.8277 0-8.7412 3.9136-8.7412 8.7412 0.0022 2.2263 0.85369 4.368 2.3809 5.9879-3.0353 1.9148-4.8769 5.2522-4.8784 8.841-2e-6 5.776 4.6823 10.458 10.458 10.458 2.0912-3e-3 5.8628 0.0174 5.8628 0.0174l-1.9604 17.777h11.239l-1.964-17.812s3.8114 0.017 5.9288 0.0174c5.7759 0 10.458-4.6823 10.458-10.458-0.0052-3.606-1.8677-6.955-4.9284-8.8617 1.5178-1.6166 2.3644-3.7497 2.3685-5.9672 0-4.8276-3.9136-8.7412-8.7412-8.7412-0.07035 2e-3 -0.14068 4e-3 -0.21097 7e-3 0.13817-0.61737 0.2089-1.2479 0.21097-1.8806 0-4.8277-3.9136-8.7412-8.7412-8.7412z" fill="#1d831d"/>
    <path d="m27.924 232.71c-4.8277 0-8.7413 3.9136-8.7413 8.7412 0.0037 0.63399 0.07628 1.2657 0.21658 1.884-0.07215-5e-3 -0.14434-8e-3 -0.21658-0.0109-4.8277 0-8.7412 3.9136-8.7412 8.7412 0.0021 2.2263 0.8537 4.368 2.3809 5.9879-3.0354 1.9148-4.8769 5.2522-4.8784 8.841-7e-7 5.776 4.6823 10.458 10.458 10.458 2.0912-3e-3 5.8628 0.0174 5.8628 0.0174l-1.9604 17.777h11.239l-1.964-17.812s3.8114 0.017 5.9288 0.0174c5.7759 0 10.458-4.6823 10.458-10.458-0.0052-3.606-1.8677-6.955-4.9284-8.8617 1.5178-1.6166 2.3644-3.7497 2.3685-5.9672 0-4.8276-3.9136-8.7412-8.7412-8.7412-0.07035 2e-3 -0.14068 4e-3 -0.21097 7e-3 0.13817-0.61737 0.20891-1.2479 0.21097-1.8806 0-4.8277-3.9136-8.7412-8.7412-8.7412z" fill="#1f951f"/>
    <path d="m22.504 232.71c-4.8277 0-8.7413 3.9136-8.7413 8.7412 0.0037 0.63399 0.07628 1.2657 0.21658 1.884-0.07215-5e-3 -0.14435-8e-3 -0.21658-0.0109-4.8277 0-8.7412 3.9136-8.7412 8.7412 0.00219 2.2263 0.8537 4.368 2.3809 5.9879-3.0353 1.9148-4.8769 5.2522-4.8784 8.841-2.5e-6 5.776 4.6823 10.458 10.458 10.458 2.0912-3e-3 5.8628 0.0174 5.8628 0.0174l-1.9604 17.777h11.239l-1.964-17.812s3.8114 0.017 5.9288 0.0174c5.7759 0 10.458-4.6823 10.458-10.458-0.0052-3.606-1.8677-6.955-4.9284-8.8617 1.5178-1.6166 2.3644-3.7497 2.3685-5.9672 0-4.8276-3.9136-8.7412-8.7412-8.7412-0.07035 2e-3 -0.14068 4e-3 -0.21097 7e-3 0.13817-0.61737 0.20891-1.2479 0.21097-1.8806 0-4.8277-3.9136-8.7412-8.7412-8.7412z" fill="#2a2"/>
   </g>
   <g>
    <g fill="#333" stroke-width=".62093" aria-label="H U">
     <path d="m88.897 275.86h-3.8032v-14.805h-16.797v14.805h-3.8032v-32.463h3.8032v14.239h16.797v-14.239h3.8032z"/>
     <path d="m133.88 262.73q0 13.673-12.338 13.673-11.817 0-11.817-13.153v-19.854h3.8032v19.605q0 9.9834 8.4214 9.9834 8.1271 0 8.1271-9.6438v-19.944h3.8032z"/>
    </g>
    <g fill="#b3b3b3" aria-label="+">
     <path d="m106.03 258.08v3.137h-13.13v-3.137zm-4.9157 8.1336h-3.2987v-13.13h3.2987z" fill="#808080" stroke-width=".62093"/>
    </g>
    <g fill="#808080" stroke-width=".3437" aria-label="teljeskörű megoldások">
     <path d="m66.397 287.64q-0.14231 0.0376-0.31148 0.0618-0.16648 0.0242-0.29806 0.0242-0.45916 0-0.69815-0.24704-0.23898-0.24704-0.23898-0.79213v-1.595h-0.34102v-0.42425h0.34102v-0.86195h0.50481v0.86195h1.0418v0.42425h-1.0418v1.3668q0 0.2363 0.01074 0.37056 0.01074 0.13157 0.07519 0.24703 0.05907 0.10741 0.16111 0.15843 0.10472 0.0483 0.31685 0.0483 0.12352 0 0.25778-0.0349 0.13426-0.0376 0.19333-0.0617h0.02685z"/>
     <path d="m69.864 286.22h-2.2099q0 0.27657 0.08324 0.48333 0.08324 0.20408 0.22824 0.33565 0.13963 0.12889 0.33028 0.19333 0.19333 0.0645 0.42426 0.0645 0.30611 0 0.61491-0.12084 0.31148-0.12351 0.44305-0.24166h0.02685v0.55046q-0.25509 0.10741-0.52092 0.17991t-0.55852 0.0725q-0.74648 0-1.1654-0.40278-0.41889-0.40546-0.41889-1.1493 0-0.73574 0.40009-1.168 0.40278-0.43231 1.058-0.43231 0.60685 0 0.93444 0.35444 0.33028 0.35444 0.33028 1.0069zm-0.49139-0.38667q-0.0027-0.3974-0.20139-0.6149-0.19602-0.2175-0.5988-0.2175-0.40546 0-0.64713 0.23898-0.23898 0.23898-0.2712 0.59342z"/>
     <path d="m71.483 287.66h-0.50481v-4.1781h0.50481z"/>
     <path d="m73.765 284.16h-0.56926v-0.52361h0.56926zm-0.03222 3.574q0 0.5263-0.26852 0.79482-0.26852 0.26851-0.71963 0.26851-0.10741 0-0.28463-0.0215-0.17454-0.0215-0.29268-0.0537v-0.48065h0.02685q0.07519 0.0295 0.20139 0.0671 0.12889 0.0376 0.24972 0.0376 0.19333 0 0.31148-0.0537t0.17722-0.16111q0.05907-0.10741 0.07519-0.26046 0.0188-0.15037 0.0188-0.36787v-2.4167h-0.62565v-0.42425h1.1305z"/>
     <path d="m77.576 286.22h-2.2099q0 0.27657 0.08324 0.48333 0.08324 0.20408 0.22824 0.33565 0.13963 0.12889 0.33028 0.19333 0.19333 0.0645 0.42426 0.0645 0.30611 0 0.61491-0.12084 0.31148-0.12351 0.44306-0.24166h0.02685v0.55046q-0.25509 0.10741-0.52092 0.17991t-0.55852 0.0725q-0.74648 0-1.1654-0.40278-0.41889-0.40546-0.41889-1.1493 0-0.73574 0.40009-1.168 0.40278-0.43231 1.058-0.43231 0.60685 0 0.93444 0.35444 0.33028 0.35444 0.33028 1.0069zm-0.49139-0.38667q-0.0027-0.3974-0.20139-0.6149-0.19602-0.2175-0.5988-0.2175-0.40546 0-0.64713 0.23898-0.23898 0.23898-0.2712 0.59342z"/>
     <path d="m80.827 286.8q0 0.41084-0.34102 0.67398-0.33833 0.26315-0.92639 0.26315-0.33296 0-0.61222-0.0779-0.27657-0.0805-0.46454-0.17453v-0.56658h0.02685q0.23898 0.17991 0.53167 0.28732 0.29268 0.10472 0.5612 0.10472 0.33296 0 0.52092-0.10741 0.18796-0.10741 0.18796-0.33833 0-0.17722-0.10204-0.26852-0.10204-0.0913-0.39204-0.15574-0.10741-0.0242-0.28194-0.0564-0.17185-0.0322-0.31417-0.0698-0.39472-0.10473-0.5612-0.30611-0.1638-0.20408-0.1638-0.49945 0-0.18527 0.07519-0.34907 0.07787-0.1638 0.23361-0.29269 0.15037-0.1262 0.3813-0.1987 0.23361-0.0752 0.52092-0.0752 0.26852 0 0.54241 0.0671 0.27657 0.0644 0.45917 0.15842v0.53972h-0.02685q-0.19333-0.14231-0.46991-0.23898-0.27657-0.0994-0.54241-0.0994-0.27657 0-0.46722 0.10741-0.19065 0.10472-0.19065 0.31416 0 0.18528 0.11546 0.27926 0.11278 0.094 0.36518 0.15306 0.13963 0.0322 0.31148 0.0644 0.17454 0.0322 0.29 0.0591 0.35176 0.0805 0.54241 0.27657 0.19065 0.1987 0.19065 0.52629z"/>
     <path d="m84.619 287.66h-0.66592l-1.203-1.313-0.32759 0.31148v1.0016h-0.50481v-4.1781h0.50481v2.6798l1.4581-1.501h0.63639l-1.3936 1.3856z"/>
     <path d="m88.05 286.17q0 0.73306-0.37592 1.1573-0.37593 0.42426-1.0069 0.42426-0.63639 0-1.0123-0.42426-0.37324-0.42425-0.37324-1.1573 0-0.73305 0.37324-1.1573 0.37592-0.42694 1.0123-0.42694 0.63102 0 1.0069 0.42694 0.37592 0.42426 0.37592 1.1573zm-0.52092 0q0-0.58268-0.22824-0.86463-0.22824-0.28463-0.6337-0.28463-0.41083 0-0.63907 0.28463-0.22556 0.28195-0.22556 0.86463 0 0.56389 0.22824 0.85657 0.22824 0.29 0.63639 0.29 0.40278 0 0.63102-0.28731 0.23093-0.29 0.23093-0.85926zm-0.04028-2.0031h-0.53435v-0.52361h0.53435zm-1.109 0h-0.53435v-0.52361h0.53435z"/>
     <path d="m91.05 285.22h-0.02685q-0.11278-0.0268-0.22018-0.0376-0.10472-0.0134-0.24972-0.0134-0.23361 0-0.45111 0.10472-0.2175 0.10204-0.41889 0.26583v2.1294h-0.50481v-2.9993h0.50481v0.44305q0.30074-0.24167 0.52898-0.34102 0.23093-0.10203 0.46991-0.10203 0.13157 0 0.19065 8e-3 0.05907 5e-3 0.17722 0.0242z"/>
     <path d="m94.361 287.66h-0.50481v-0.33296q-0.25509 0.20139-0.4887 0.3088-0.23361 0.1074-0.51556 0.1074-0.47259 0-0.73574-0.28731-0.26315-0.29-0.26315-0.84852v-1.9468h0.50481v1.7078q0 0.22824 0.02148 0.39204 0.02148 0.16111 0.0913 0.27657 0.0725 0.11815 0.18796 0.17185 0.11546 0.0537 0.33565 0.0537 0.19602 0 0.42694-0.10204 0.23361-0.10204 0.435-0.26046v-2.2394h0.50481zm0.11278-4.5004-0.69278 1.0043h-0.37324l0.4538-1.0043zm-1.0848 0-0.69278 1.0043h-0.37324l0.4538-1.0043z"/>
     <path d="m102.35 287.66h-0.50481v-1.7078q0-0.19334-0.0188-0.37324-0.0161-0.17991-0.0725-0.28732-0.0618-0.11546-0.17722-0.17453-0.11546-0.0591-0.33296-0.0591-0.21213 0-0.42426 0.10741-0.21213 0.10472-0.42426 0.26852 8e-3 0.0618 0.0134 0.145 5e-3 0.0805 5e-3 0.16111v1.9199h-0.50482v-1.7078q0-0.19871-0.0188-0.37593-0.01611-0.1799-0.0725-0.28731-0.06176-0.11546-0.17722-0.17185-0.11546-0.0591-0.33296-0.0591-0.20676 0-0.4162 0.10204-0.20676 0.10204-0.41352 0.26046v2.2394h-0.50481v-2.9993h0.50481v0.33296q0.2363-0.19602 0.46991-0.30611 0.2363-0.11009 0.50213-0.11009 0.30611 0 0.51824 0.12888 0.21481 0.12889 0.31953 0.35713 0.30611-0.25777 0.55852-0.37055 0.25241-0.11546 0.53972-0.11546 0.49408 0 0.72769 0.30074 0.23629 0.29805 0.23629 0.83509z"/>
     <path d="m106.18 286.22h-2.2099q0 0.27657 0.0832 0.48333 0.0832 0.20408 0.22824 0.33565 0.13963 0.12889 0.33028 0.19333 0.19333 0.0645 0.42426 0.0645 0.30611 0 0.6149-0.12084 0.31148-0.12351 0.44306-0.24166h0.0268v0.55046q-0.25509 0.10741-0.52093 0.17991-0.26583 0.0725-0.55851 0.0725-0.74648 0-1.1654-0.40278-0.41889-0.40546-0.41889-1.1493 0-0.73574 0.40009-1.168 0.40278-0.43231 1.058-0.43231 0.60685 0 0.93445 0.35444 0.33027 0.35444 0.33027 1.0069zm-0.49138-0.38667q-3e-3 -0.3974-0.20139-0.6149-0.19602-0.2175-0.5988-0.2175-0.40546 0-0.64713 0.23898-0.23898 0.23898-0.2712 0.59342z"/>
     <path d="m109.72 287.32q0 0.7626-0.34638 1.1197-0.34639 0.35713-1.066 0.35713-0.23898 0-0.46722-0.0349-0.22556-0.0322-0.44574-0.094v-0.51556h0.0269q0.12352 0.0483 0.39204 0.11815 0.26851 0.0725 0.53703 0.0725 0.25778 0 0.42695-0.0618 0.16916-0.0618 0.26314-0.17185 0.094-0.10472 0.13426-0.25241 0.0403-0.14768 0.0403-0.33028v-0.27388q-0.22824 0.18259-0.43768 0.27388-0.20676 0.0886-0.52898 0.0886-0.53704 0-0.85389-0.38666-0.31417-0.38935-0.31417-1.0956 0-0.38666 0.10741-0.66592 0.11009-0.28194 0.29805-0.48602 0.17454-0.19065 0.42426-0.29537 0.24972-0.1074 0.49676-0.1074 0.26046 0 0.435 0.0537 0.17722 0.051 0.37324 0.15842l0.0322-0.12888h0.47259zm-0.50481-0.48333v-1.6353q-0.20139-0.0913-0.37592-0.12889-0.17186-0.0403-0.34371-0.0403-0.4162 0-0.65518 0.27926t-0.23898 0.81092q0 0.50482 0.17722 0.76528t0.58805 0.26046q0.22019 0 0.44037-0.0832 0.22287-0.0859 0.40815-0.22824z"/>
     <path d="m113.61 286.17q0 0.73306-0.37593 1.1573-0.37592 0.42426-1.0069 0.42426-0.63639 0-1.0123-0.42426-0.37324-0.42425-0.37324-1.1573 0-0.73305 0.37324-1.1573 0.37593-0.42694 1.0123-0.42694 0.63102 0 1.0069 0.42694 0.37593 0.42426 0.37593 1.1573zm-0.52093 0q0-0.58268-0.22824-0.86463-0.22824-0.28463-0.6337-0.28463-0.41083 0-0.63908 0.28463-0.22555 0.28195-0.22555 0.86463 0 0.56389 0.22824 0.85657 0.22824 0.29 0.63639 0.29 0.40277 0 0.63102-0.28731 0.23092-0.29 0.23092-0.85926z"/>
     <path d="m115.25 287.66h-0.50482v-4.1781h0.50482z"/>
     <path d="m119.03 287.66h-0.50481v-0.31416q-0.2175 0.18796-0.4538 0.29268-0.23629 0.10472-0.51287 0.10472-0.53703 0-0.85389-0.41351-0.31416-0.41352-0.31416-1.1466 0-0.38129 0.10741-0.67935 0.11009-0.29805 0.29537-0.5075 0.18259-0.20407 0.42425-0.31148 0.24436-0.1074 0.50482-0.1074 0.23629 0 0.41889 0.051 0.18259 0.0483 0.38398 0.15306v-1.2996h0.50481zm-0.50481-0.73842v-1.7212q-0.20408-0.0913-0.36519-0.12621-0.16111-0.0349-0.35176-0.0349-0.42425 0-0.66055 0.29537t-0.2363 0.83777q0 0.53435 0.1826 0.81361 0.18259 0.27658 0.58537 0.27658 0.21481 0 0.43499-0.094 0.22019-0.0967 0.41084-0.24703z"/>
     <path d="m122.7 287.66h-0.50213v-0.31953q-0.0671 0.0456-0.18259 0.12888-0.11278 0.0806-0.22019 0.12889-0.1262 0.0618-0.29 0.10204-0.16379 0.043-0.38398 0.043-0.40546 0-0.68741-0.26851-0.28194-0.26852-0.28194-0.68473 0-0.34101 0.145-0.55046 0.14769-0.21213 0.41889-0.33296 0.27389-0.12083 0.65787-0.1638 0.38398-0.043 0.82435-0.0644v-0.0779q0-0.17185-0.0618-0.28463-0.0591-0.11278-0.17185-0.17722-0.10741-0.0618-0.25778-0.0832-0.15037-0.0215-0.31417-0.0215-0.1987 0-0.44305 0.0537-0.24435 0.051-0.50481 0.15037h-0.0269v-0.51287q0.14769-0.0403 0.42695-0.0886t0.55046-0.0483q0.31685 0 0.55046 0.0537 0.2363 0.051 0.40815 0.17722 0.16916 0.12352 0.25778 0.31954 0.0886 0.19602 0.0886 0.48602zm-0.50213-0.73842v-0.83509q-0.23093 0.0134-0.54509 0.0403-0.31148 0.0269-0.49408 0.0779-0.2175 0.0618-0.35176 0.19334-0.13425 0.12889-0.13425 0.35713 0 0.25777 0.15574 0.38935 0.15574 0.12889 0.47527 0.12889 0.26584 0 0.48602-0.10204 0.22019-0.10472 0.40815-0.24972zm0.18259-3.7619-0.73305 1.0043h-0.4001l0.48065-1.0043z"/>
     <path d="m126.16 286.8q0 0.41084-0.34102 0.67398-0.33833 0.26315-0.92638 0.26315-0.33297 0-0.61222-0.0779-0.27658-0.0805-0.46454-0.17453v-0.56658h0.0268q0.23898 0.17991 0.53167 0.28732 0.29268 0.10472 0.5612 0.10472 0.33296 0 0.52092-0.10741 0.18797-0.10741 0.18797-0.33833 0-0.17722-0.10204-0.26852t-0.39204-0.15574q-0.1074-0.0242-0.28194-0.0564-0.17185-0.0322-0.31417-0.0698-0.39472-0.10473-0.5612-0.30611-0.16379-0.20408-0.16379-0.49945 0-0.18527 0.0752-0.34907 0.0779-0.1638 0.23361-0.29269 0.15037-0.1262 0.3813-0.1987 0.23361-0.0752 0.52092-0.0752 0.26852 0 0.54241 0.0671 0.27657 0.0644 0.45916 0.15842v0.53972h-0.0268q-0.19333-0.14231-0.4699-0.23898-0.27658-0.0994-0.54241-0.0994-0.27657 0-0.46722 0.10741-0.19065 0.10472-0.19065 0.31416 0 0.18528 0.11546 0.27926 0.11278 0.094 0.36519 0.15306 0.13963 0.0322 0.31148 0.0644 0.17454 0.0322 0.29 0.0591 0.35176 0.0805 0.5424 0.27657 0.19065 0.1987 0.19065 0.52629z"/>
     <path d="m129.79 286.17q0 0.73306-0.37593 1.1573-0.37593 0.42426-1.0069 0.42426-0.63639 0-1.0123-0.42426-0.37324-0.42425-0.37324-1.1573 0-0.73305 0.37324-1.1573 0.37593-0.42694 1.0123-0.42694 0.63101 0 1.0069 0.42694 0.37593 0.42426 0.37593 1.1573zm-0.52093 0q0-0.58268-0.22824-0.86463-0.22824-0.28463-0.6337-0.28463-0.41084 0-0.63908 0.28463-0.22555 0.28195-0.22555 0.86463 0 0.56389 0.22824 0.85657 0.22824 0.29 0.63639 0.29 0.40277 0 0.63101-0.28731 0.23093-0.29 0.23093-0.85926z"/>
     <path d="m133.64 287.66h-0.66592l-1.203-1.313-0.32759 0.31148v1.0016h-0.50482v-4.1781h0.50482v2.6798l1.458-1.501h0.63639l-1.3936 1.3856z"/>
    </g>
   </g>
  </g>
 </g>
</svg>
